<svg xmlns="http://www.w3.org/2000/svg" xmlns:xlink="http://www.w3.org/1999/xlink" width="500" zoomAndPan="magnify" viewBox="0 0 375 374.999991" height="500" preserveAspectRatio="xMidYMid meet" version="1.0"><defs><clipPath id="3fe822fb77"><path d="M 112.5 98.617188 L 262.5 98.617188 L 262.5 248.617188 L 112.5 248.617188 Z M 112.5 98.617188 " clip-rule="nonzero"/></clipPath></defs><path fill="#000000" d="M 262.429688 238.003906 C 277.746094 219.996094 286.15625 197.410156 286.15625 173.503906 C 286.15625 146.847656 275.773438 121.789062 256.933594 102.941406 C 238.09375 84.089844 213.046875 73.710938 186.394531 73.710938 C 159.753906 73.710938 134.707031 84.089844 115.867188 102.941406 C 76.980469 141.847656 76.980469 205.160156 115.867188 244.066406 C 134.707031 262.914062 159.753906 273.296875 186.394531 273.296875 C 210.300781 273.296875 232.875 264.886719 250.875 249.5625 L 317.832031 316.554688 C 319.429688 318.152344 321.519531 318.953125 323.609375 318.953125 C 325.699219 318.953125 327.792969 318.152344 329.386719 316.554688 C 332.578125 313.363281 332.578125 308.191406 329.386719 304.996094 Z M 127.421875 232.507812 C 94.902344 199.976562 94.902344 147.035156 127.421875 114.5 C 159.9375 81.976562 212.847656 81.960938 245.378906 114.5 C 261.132812 130.261719 269.8125 151.214844 269.8125 173.503906 C 269.8125 195.792969 261.132812 216.746094 245.378906 232.503906 C 212.847656 265.050781 159.9375 265.035156 127.421875 232.507812 Z M 127.421875 232.507812 " fill-opacity="1" fill-rule="nonzero"/><g clip-path="url(#3fe822fb77)"><path fill="#000000" d="M 187.5 105.761719 C 177.84375 105.761719 168.664062 107.777344 160.359375 111.40625 C 158.550781 112.195312 156.445312 111.371094 155.65625 109.5625 C 154.867188 107.757812 155.691406 105.652344 157.5 104.859375 C 166.691406 100.84375 176.839844 98.617188 187.5 98.617188 C 228.921875 98.617188 262.5 132.199219 262.5 173.617188 C 262.5 190.503906 256.917969 206.089844 247.496094 218.628906 C 246.3125 220.203125 244.074219 220.523438 242.496094 219.339844 C 240.921875 218.152344 240.601562 215.914062 241.789062 214.335938 C 250.308594 202.996094 255.355469 188.902344 255.355469 173.617188 C 255.355469 136.140625 224.976562 105.761719 187.5 105.761719 Z M 138.5625 121.46875 C 139.980469 122.835938 140.023438 125.097656 138.652344 126.515625 C 126.878906 138.726562 119.644531 155.324219 119.644531 173.617188 C 119.644531 211.09375 150.023438 241.476562 187.5 241.476562 C 201.292969 241.476562 214.113281 237.363281 224.820312 230.300781 C 226.464844 229.214844 228.679688 229.667969 229.765625 231.316406 C 230.851562 232.960938 230.398438 235.175781 228.753906 236.261719 C 216.917969 244.074219 202.734375 248.617188 187.5 248.617188 C 146.078125 248.617188 112.5 215.039062 112.5 173.617188 C 112.5 153.398438 120.503906 135.042969 133.511719 121.558594 C 134.878906 120.140625 137.140625 120.097656 138.5625 121.46875 Z M 138.5625 121.46875 " fill-opacity="1" fill-rule="evenodd"/></g><path fill="#000000" d="M 230.085938 175.082031 C 232.058594 174.96875 233.746094 176.472656 233.859375 178.441406 C 233.90625 179.210938 233.929688 179.984375 233.929688 180.761719 C 233.929688 202.457031 216.339844 220.046875 194.644531 220.046875 C 193.941406 220.046875 193.246094 220.027344 192.550781 219.992188 C 190.582031 219.886719 189.070312 218.207031 189.171875 216.238281 C 189.277344 214.269531 190.957031 212.753906 192.925781 212.859375 C 193.496094 212.890625 194.066406 212.90625 194.644531 212.90625 C 212.394531 212.90625 226.785156 198.511719 226.785156 180.761719 C 226.785156 180.121094 226.765625 179.488281 226.730469 178.855469 C 226.617188 176.886719 228.117188 175.199219 230.085938 175.082031 Z M 230.085938 175.082031 " fill-opacity="1" fill-rule="evenodd"/><path fill="#000000" d="M 187.5 166.476562 C 183.554688 166.476562 180.355469 169.671875 180.355469 173.617188 C 180.355469 177.5625 183.554688 180.761719 187.5 180.761719 C 191.445312 180.761719 194.644531 177.5625 194.644531 173.617188 C 194.644531 169.671875 191.445312 166.476562 187.5 166.476562 Z M 173.214844 173.617188 C 173.214844 165.730469 179.609375 159.332031 187.5 159.332031 C 195.390625 159.332031 201.785156 165.730469 201.785156 173.617188 C 201.785156 181.507812 195.390625 187.90625 187.5 187.90625 C 179.609375 187.90625 173.214844 181.507812 173.214844 173.617188 Z M 173.214844 173.617188 " fill-opacity="1" fill-rule="evenodd"/></svg>